<svg width="1200" height="460" viewBox="0 0 1200 460" fill="none" xmlns="http://www.w3.org/2000/svg">
  <defs>
    <linearGradient id="panel" x1="0" y1="0" x2="1200" y2="420" gradientUnits="userSpaceOnUse">
      <stop stop-color="#F8FBFF"/>
      <stop offset="1" stop-color="#EEF5FF"/>
    </linearGradient>
    <linearGradient id="blue" x1="0" y1="0" x2="1" y2="1">
      <stop stop-color="#2563EB"/>
      <stop offset="1" stop-color="#1D4ED8"/>
    </linearGradient>
    <linearGradient id="teal" x1="0" y1="0" x2="1" y2="1">
      <stop stop-color="#14B8A6"/>
      <stop offset="1" stop-color="#059669"/>
    </linearGradient>
    <filter id="soft" x="0" y="0" width="1200" height="460" filterUnits="userSpaceOnUse" color-interpolation-filters="sRGB">
      <feDropShadow dx="0" dy="10" stdDeviation="18" flood-color="#93B3E5" flood-opacity="0.25"/>
    </filter>
  </defs>

  <rect width="1200" height="460" rx="28" fill="url(#panel)"/>
  <text x="66" y="70" fill="#10223D" font-family="Inter,Segoe UI,Arial,sans-serif" font-size="34" font-weight="800">The forensic research loop</text>
  <text x="66" y="104" fill="#48617F" font-family="Inter,Segoe UI,Arial,sans-serif" font-size="19">A self-improving examiner cycle: clarify, tool-check, investigate, explain, report, review, and go again when needed.</text>

  <g filter="url(#soft)">
    <rect x="60" y="154" width="132" height="104" rx="22" fill="#FFFFFF" stroke="#D4E4FF"/>
    <rect x="218" y="154" width="132" height="104" rx="22" fill="#FFFFFF" stroke="#D4E4FF"/>
    <rect x="376" y="154" width="132" height="104" rx="22" fill="#FFFFFF" stroke="#D4E4FF"/>
    <rect x="534" y="154" width="132" height="104" rx="22" fill="#FFFFFF" stroke="#D4E4FF"/>
    <rect x="692" y="154" width="132" height="104" rx="22" fill="#FFFFFF" stroke="#D4E4FF"/>
    <rect x="850" y="154" width="132" height="104" rx="22" fill="#FFFFFF" stroke="#D4E4FF"/>
    <rect x="1008" y="154" width="132" height="104" rx="22" fill="#FFFFFF" stroke="#D4E4FF"/>
  </g>

  <g>
    <circle cx="124" cy="188" r="18" fill="url(#blue)"/>
    <text x="119" y="194" fill="#FFFFFF" font-family="Inter,Segoe UI,Arial,sans-serif" font-size="16" font-weight="800">1</text>
    <text x="84" y="222" fill="#0F223D" font-family="Inter,Segoe UI,Arial,sans-serif" font-size="20" font-weight="800">Brief</text>
    <text x="78" y="244" fill="#5D7390" font-family="Inter,Segoe UI,Arial,sans-serif" font-size="14">Receive the</text>
    <text x="76" y="262" fill="#5D7390" font-family="Inter,Segoe UI,Arial,sans-serif" font-size="14">case request.</text>

    <circle cx="284" cy="188" r="18" fill="url(#blue)"/>
    <text x="279" y="194" fill="#FFFFFF" font-family="Inter,Segoe UI,Arial,sans-serif" font-size="16" font-weight="800">2</text>
    <text x="248" y="222" fill="#0F223D" font-family="Inter,Segoe UI,Arial,sans-serif" font-size="20" font-weight="800">Clarify</text>
    <text x="238" y="244" fill="#5D7390" font-family="Inter,Segoe UI,Arial,sans-serif" font-size="14">Ask only the</text>
    <text x="235" y="262" fill="#5D7390" font-family="Inter,Segoe UI,Arial,sans-serif" font-size="14">useful questions.</text>

    <circle cx="442" cy="188" r="18" fill="url(#blue)"/>
    <text x="437" y="194" fill="#FFFFFF" font-family="Inter,Segoe UI,Arial,sans-serif" font-size="16" font-weight="800">3</text>
    <text x="396" y="222" fill="#0F223D" font-family="Inter,Segoe UI,Arial,sans-serif" font-size="20" font-weight="800">Toolsmith</text>
    <text x="393" y="244" fill="#5D7390" font-family="Inter,Segoe UI,Arial,sans-serif" font-size="14">Check tools,</text>
    <text x="390" y="262" fill="#5D7390" font-family="Inter,Segoe UI,Arial,sans-serif" font-size="14">readiness, risks.</text>

    <circle cx="600" cy="188" r="18" fill="url(#blue)"/>
    <text x="595" y="194" fill="#FFFFFF" font-family="Inter,Segoe UI,Arial,sans-serif" font-size="16" font-weight="800">4</text>
    <text x="562" y="222" fill="#0F223D" font-family="Inter,Segoe UI,Arial,sans-serif" font-size="20" font-weight="800">Examine</text>
    <text x="556" y="244" fill="#5D7390" font-family="Inter,Segoe UI,Arial,sans-serif" font-size="14">Handle evidence</text>
    <text x="562" y="262" fill="#5D7390" font-family="Inter,Segoe UI,Arial,sans-serif" font-size="14">defensibly.</text>

    <circle cx="758" cy="188" r="18" fill="url(#blue)"/>
    <text x="753" y="194" fill="#FFFFFF" font-family="Inter,Segoe UI,Arial,sans-serif" font-size="16" font-weight="800">5</text>
    <text x="724" y="222" fill="#0F223D" font-family="Inter,Segoe UI,Arial,sans-serif" font-size="20" font-weight="800">Analyze</text>
    <text x="718" y="244" fill="#5D7390" font-family="Inter,Segoe UI,Arial,sans-serif" font-size="14">Interpret facts</text>
    <text x="715" y="262" fill="#5D7390" font-family="Inter,Segoe UI,Arial,sans-serif" font-size="14">for the case.</text>

    <circle cx="916" cy="188" r="18" fill="url(#blue)"/>
    <text x="911" y="194" fill="#FFFFFF" font-family="Inter,Segoe UI,Arial,sans-serif" font-size="16" font-weight="800">6</text>
    <text x="886" y="222" fill="#0F223D" font-family="Inter,Segoe UI,Arial,sans-serif" font-size="20" font-weight="800">Report</text>
    <text x="880" y="244" fill="#5D7390" font-family="Inter,Segoe UI,Arial,sans-serif" font-size="14">Explain clearly</text>
    <text x="873" y="262" fill="#5D7390" font-family="Inter,Segoe UI,Arial,sans-serif" font-size="14">in Markdown.</text>

    <circle cx="1074" cy="188" r="18" fill="url(#teal)"/>
    <text x="1069" y="194" fill="#FFFFFF" font-family="Inter,Segoe UI,Arial,sans-serif" font-size="16" font-weight="800">7</text>
    <text x="1040" y="222" fill="#0F223D" font-family="Inter,Segoe UI,Arial,sans-serif" font-size="20" font-weight="800">Review</text>
    <text x="1035" y="244" fill="#5D7390" font-family="Inter,Segoe UI,Arial,sans-serif" font-size="14">Improve the</text>
    <text x="1034" y="262" fill="#5D7390" font-family="Inter,Segoe UI,Arial,sans-serif" font-size="14">next run.</text>
  </g>

  <g stroke="#7EA8E8" stroke-width="4" stroke-linecap="round">
    <path d="M192 206H218"/>
    <path d="M350 206H376"/>
    <path d="M508 206H534"/>
    <path d="M666 206H692"/>
    <path d="M824 206H850"/>
    <path d="M982 206H1008"/>
  </g>
  <g fill="#7EA8E8">
    <path d="M210 198L220 206L210 214V198Z"/>
    <path d="M368 198L378 206L368 214V198Z"/>
    <path d="M526 198L536 206L526 214V198Z"/>
    <path d="M684 198L694 206L684 214V198Z"/>
    <path d="M842 198L852 206L842 214V198Z"/>
    <path d="M1000 198L1010 206L1000 214V198Z"/>
  </g>

  <path d="M1090 286C1090 362 1006 392 860 392H232C130 392 92 364 92 316" fill="none" stroke="#10B981" stroke-width="5" stroke-linecap="round" stroke-dasharray="8 10"/>
  <path d="M83 321L92 308L101 321" fill="#10B981"/>
  <text x="600" y="418" text-anchor="middle" fill="#087F5B" font-family="Inter,Segoe UI,Arial,sans-serif" font-size="16" font-weight="700">Loop again if new questions remain, scope changes,</text>
  <text x="600" y="440" text-anchor="middle" fill="#087F5B" font-family="Inter,Segoe UI,Arial,sans-serif" font-size="16" font-weight="700">or the maintainer finds a safer, better next step.</text>
</svg>
