<svg width="1200" height="660" viewBox="0 0 1200 660" fill="none" xmlns="http://www.w3.org/2000/svg">
  <defs>
    <linearGradient id="bg" x1="0" y1="0" x2="1200" y2="660" gradientUnits="userSpaceOnUse">
      <stop stop-color="#08111F"/>
      <stop offset="0.58" stop-color="#10233E"/>
      <stop offset="1" stop-color="#0F2F35"/>
    </linearGradient>
    <linearGradient id="blue" x1="0" y1="0" x2="1" y2="1">
      <stop stop-color="#60A5FA"/>
      <stop offset="1" stop-color="#2563EB"/>
    </linearGradient>
    <linearGradient id="green" x1="0" y1="0" x2="1" y2="1">
      <stop stop-color="#34D399"/>
      <stop offset="1" stop-color="#0F766E"/>
    </linearGradient>
    <linearGradient id="amber" x1="0" y1="0" x2="1" y2="1">
      <stop stop-color="#FBBF24"/>
      <stop offset="1" stop-color="#F97316"/>
    </linearGradient>
    <filter id="shadow" x="-20" y="-20" width="1240" height="700" filterUnits="userSpaceOnUse" color-interpolation-filters="sRGB">
      <feDropShadow dx="0" dy="18" stdDeviation="20" flood-color="#020617" flood-opacity="0.35"/>
    </filter>
  </defs>

  <rect width="1200" height="660" rx="28" fill="url(#bg)"/>
  <path d="M64 104C212 22 389 16 538 82C692 150 759 284 913 292C1035 298 1118 230 1160 176V660H0V182C15 154 35 125 64 104Z" fill="#0B1A2D" opacity="0.56"/>
  <path d="M0 562C164 478 328 504 473 548C671 609 843 618 1200 486V660H0V562Z" fill="#0B3B3D" opacity="0.24"/>

  <g transform="translate(80 64)">
    <rect x="0" y="0" width="88" height="88" rx="20" fill="#0B1B31" stroke="#89B8FF" stroke-opacity="0.34"/>
    <path d="M44 15L68 25V47C68 63 57 78 44 84C31 78 20 63 20 47V25L44 15Z" fill="url(#blue)"/>
    <path d="M32 46L40 54L57 36" stroke="#F8FBFF" stroke-width="5" stroke-linecap="round" stroke-linejoin="round"/>
  </g>

  <text x="190" y="100" fill="#B7D2FF" font-family="Inter,Segoe UI,Arial,sans-serif" font-size="17" font-weight="700" letter-spacing="1.6">FORENSIC AGENT WORKFLOW</text>
  <text x="80" y="198" fill="#FFFFFF" font-family="Inter,Segoe UI,Arial,sans-serif" font-size="67" font-weight="850">Forensic Copilot</text>
  <text x="80" y="250" fill="#D3E4FF" font-family="Inter,Segoe UI,Arial,sans-serif" font-size="29" font-weight="560">One examiner agent that profiles the platform,</text>
  <text x="80" y="288" fill="#D3E4FF" font-family="Inter,Segoe UI,Arial,sans-serif" font-size="29" font-weight="560">chooses defensible tools, collects evidence,</text>
  <text x="80" y="326" fill="#D3E4FF" font-family="Inter,Segoe UI,Arial,sans-serif" font-size="29" font-weight="560">and writes a report a human can defend.</text>

  <g transform="translate(82 372)">
    <rect x="0" y="0" width="172" height="48" rx="12" fill="#0E2440" stroke="#60A5FA" stroke-opacity="0.48"/>
    <text x="24" y="31" fill="#EAF3FF" font-family="Inter,Segoe UI,Arial,sans-serif" font-size="16" font-weight="800">Platform-first</text>
    <rect x="188" y="0" width="172" height="48" rx="12" fill="#0E2737" stroke="#34D399" stroke-opacity="0.48"/>
    <text x="212" y="31" fill="#EAF3FF" font-family="Inter,Segoe UI,Arial,sans-serif" font-size="16" font-weight="800">Offline-ready</text>
    <rect x="376" y="0" width="188" height="48" rx="12" fill="#2B2010" stroke="#FBBF24" stroke-opacity="0.48"/>
    <text x="400" y="31" fill="#FFF8E7" font-family="Inter,Segoe UI,Arial,sans-serif" font-size="16" font-weight="800">Reviewed scripts</text>
  </g>

  <g transform="translate(82 460)">
    <text x="0" y="0" fill="#CFE1FF" font-family="Inter,Segoe UI,Arial,sans-serif" font-size="18" font-weight="700">Designed for:</text>
    <text x="0" y="34" fill="#E7F0FF" font-family="Inter,Segoe UI,Arial,sans-serif" font-size="19">Windows, Linux, macOS, images, mounted filesystems,</text>
    <text x="0" y="62" fill="#E7F0FF" font-family="Inter,Segoe UI,Arial,sans-serif" font-size="19">containers, servers, live hosts, and restricted networks.</text>
  </g>

  <g transform="translate(700 70)" filter="url(#shadow)">
    <rect x="0" y="0" width="410" height="510" rx="26" fill="#F8FBFF" stroke="#B7CEF4"/>
    <text x="30" y="46" fill="#10223D" font-family="Inter,Segoe UI,Arial,sans-serif" font-size="24" font-weight="850">Current agent loop</text>
    <text x="30" y="76" fill="#52677F" font-family="Inter,Segoe UI,Arial,sans-serif" font-size="15" font-weight="600">The examiner orchestrates internal helpers.</text>

    <g transform="translate(30 108)">
      <rect x="0" y="0" width="350" height="58" rx="12" fill="#EEF6FF" stroke="#C8DDFB"/>
      <circle cx="28" cy="29" r="15" fill="url(#blue)"/>
      <text x="28" y="34" text-anchor="middle" fill="#FFFFFF" font-family="Inter,Segoe UI,Arial,sans-serif" font-size="14" font-weight="850">1</text>
      <text x="58" y="24" fill="#10223D" font-family="Inter,Segoe UI,Arial,sans-serif" font-size="16" font-weight="800">Profile evidence platform</text>
      <text x="58" y="45" fill="#52677F" font-family="Inter,Segoe UI,Arial,sans-serif" font-size="13">OS, mode, runner boundary, host role</text>
    </g>

    <g transform="translate(30 180)">
      <rect x="0" y="0" width="350" height="58" rx="12" fill="#F0FBF8" stroke="#B7E7DB"/>
      <circle cx="28" cy="29" r="15" fill="url(#green)"/>
      <text x="28" y="34" text-anchor="middle" fill="#FFFFFF" font-family="Inter,Segoe UI,Arial,sans-serif" font-size="14" font-weight="850">2</text>
      <text x="58" y="24" fill="#10223D" font-family="Inter,Segoe UI,Arial,sans-serif" font-size="16" font-weight="800">Research and provision tools</text>
      <text x="58" y="45" fill="#52677F" font-family="Inter,Segoe UI,Arial,sans-serif" font-size="13">Expert tools, native commands, blockers</text>
    </g>

    <g transform="translate(30 252)">
      <rect x="0" y="0" width="350" height="58" rx="12" fill="#FFF8EA" stroke="#F7D78A"/>
      <circle cx="28" cy="29" r="15" fill="url(#amber)"/>
      <text x="28" y="34" text-anchor="middle" fill="#FFFFFF" font-family="Inter,Segoe UI,Arial,sans-serif" font-size="14" font-weight="850">3</text>
      <text x="58" y="24" fill="#10223D" font-family="Inter,Segoe UI,Arial,sans-serif" font-size="16" font-weight="800">Fallback script gate</text>
      <text x="58" y="45" fill="#52677F" font-family="Inter,Segoe UI,Arial,sans-serif" font-size="13">Author, review, validate, log before use</text>
    </g>

    <g transform="translate(30 324)">
      <rect x="0" y="0" width="350" height="58" rx="12" fill="#F4F7FB" stroke="#D4E0EF"/>
      <circle cx="28" cy="29" r="15" fill="#475569"/>
      <text x="28" y="34" text-anchor="middle" fill="#FFFFFF" font-family="Inter,Segoe UI,Arial,sans-serif" font-size="14" font-weight="850">4</text>
      <text x="58" y="24" fill="#10223D" font-family="Inter,Segoe UI,Arial,sans-serif" font-size="16" font-weight="800">Collect, route, timeline</text>
      <text x="58" y="45" fill="#52677F" font-family="Inter,Segoe UI,Arial,sans-serif" font-size="13">Evidence files, status, hashes, correlations</text>
    </g>

    <g transform="translate(30 396)">
      <rect x="0" y="0" width="350" height="58" rx="12" fill="#F7F2FF" stroke="#D8C4F8"/>
      <circle cx="28" cy="29" r="15" fill="#7C3AED"/>
      <text x="28" y="34" text-anchor="middle" fill="#FFFFFF" font-family="Inter,Segoe UI,Arial,sans-serif" font-size="14" font-weight="850">5</text>
      <text x="58" y="24" fill="#10223D" font-family="Inter,Segoe UI,Arial,sans-serif" font-size="16" font-weight="800">Challenge, redact, report</text>
      <text x="58" y="45" fill="#52677F" font-family="Inter,Segoe UI,Arial,sans-serif" font-size="13">Findings first, limits clear, publish safe</text>
    </g>
  </g>
</svg>
