<svg width="1200" height="420" viewBox="0 0 1200 420" fill="none" xmlns="http://www.w3.org/2000/svg">
  <defs>
    <linearGradient id="panel" x1="0" y1="0" x2="1200" y2="420" gradientUnits="userSpaceOnUse">
      <stop stop-color="#F8FBFF"/>
      <stop offset="1" stop-color="#EEF5FF"/>
    </linearGradient>
    <linearGradient id="blue" x1="0" y1="0" x2="1" y2="1">
      <stop stop-color="#2563EB"/>
      <stop offset="1" stop-color="#1D4ED8"/>
    </linearGradient>
    <linearGradient id="teal" x1="0" y1="0" x2="1" y2="1">
      <stop stop-color="#14B8A6"/>
      <stop offset="1" stop-color="#059669"/>
    </linearGradient>
    <filter id="soft" x="0" y="0" width="1200" height="420" filterUnits="userSpaceOnUse" color-interpolation-filters="sRGB">
      <feDropShadow dx="0" dy="10" stdDeviation="18" flood-color="#93B3E5" flood-opacity="0.25"/>
    </filter>
  </defs>

  <rect width="1200" height="420" rx="28" fill="url(#panel)"/>
  <text x="66" y="70" fill="#10223D" font-family="Inter,Segoe UI,Arial,sans-serif" font-size="34" font-weight="800">The forensic research loop</text>
  <text x="66" y="104" fill="#48617F" font-family="Inter,Segoe UI,Arial,sans-serif" font-size="19">A self-improving examiner cycle: clarify, tool-check, investigate, explain, report, review, and go again when needed.</text>

  <g filter="url(#soft)">
    <rect x="60" y="154" width="128" height="104" rx="22" fill="#FFFFFF" stroke="#D4E4FF"/>
    <rect x="222" y="154" width="128" height="104" rx="22" fill="#FFFFFF" stroke="#D4E4FF"/>
    <rect x="384" y="154" width="128" height="104" rx="22" fill="#FFFFFF" stroke="#D4E4FF"/>
    <rect x="546" y="154" width="128" height="104" rx="22" fill="#FFFFFF" stroke="#D4E4FF"/>
    <rect x="708" y="154" width="128" height="104" rx="22" fill="#FFFFFF" stroke="#D4E4FF"/>
    <rect x="870" y="154" width="128" height="104" rx="22" fill="#FFFFFF" stroke="#D4E4FF"/>
    <rect x="1032" y="154" width="108" height="104" rx="22" fill="#FFFFFF" stroke="#D4E4FF"/>
  </g>

  <g>
    <circle cx="124" cy="188" r="18" fill="url(#blue)"/>
    <text x="119" y="194" fill="#FFFFFF" font-family="Inter,Segoe UI,Arial,sans-serif" font-size="16" font-weight="800">1</text>
    <text x="84" y="222" fill="#0F223D" font-family="Inter,Segoe UI,Arial,sans-serif" font-size="21" font-weight="800">Brief</text>
    <text x="78" y="244" fill="#5D7390" font-family="Inter,Segoe UI,Arial,sans-serif" font-size="15">Receive the</text>
    <text x="76" y="263" fill="#5D7390" font-family="Inter,Segoe UI,Arial,sans-serif" font-size="15">case request.</text>

    <circle cx="286" cy="188" r="18" fill="url(#blue)"/>
    <text x="281" y="194" fill="#FFFFFF" font-family="Inter,Segoe UI,Arial,sans-serif" font-size="16" font-weight="800">2</text>
    <text x="248" y="222" fill="#0F223D" font-family="Inter,Segoe UI,Arial,sans-serif" font-size="21" font-weight="800">Clarify</text>
    <text x="240" y="244" fill="#5D7390" font-family="Inter,Segoe UI,Arial,sans-serif" font-size="15">Ask only the</text>
    <text x="240" y="263" fill="#5D7390" font-family="Inter,Segoe UI,Arial,sans-serif" font-size="15">useful questions.</text>

    <circle cx="448" cy="188" r="18" fill="url(#blue)"/>
    <text x="443" y="194" fill="#FFFFFF" font-family="Inter,Segoe UI,Arial,sans-serif" font-size="16" font-weight="800">3</text>
    <text x="402" y="222" fill="#0F223D" font-family="Inter,Segoe UI,Arial,sans-serif" font-size="21" font-weight="800">Toolsmith</text>
    <text x="399" y="244" fill="#5D7390" font-family="Inter,Segoe UI,Arial,sans-serif" font-size="15">Check tools,</text>
    <text x="396" y="263" fill="#5D7390" font-family="Inter,Segoe UI,Arial,sans-serif" font-size="15">readiness, risks.</text>

    <circle cx="610" cy="188" r="18" fill="url(#blue)"/>
    <text x="605" y="194" fill="#FFFFFF" font-family="Inter,Segoe UI,Arial,sans-serif" font-size="16" font-weight="800">4</text>
    <text x="568" y="222" fill="#0F223D" font-family="Inter,Segoe UI,Arial,sans-serif" font-size="21" font-weight="800">Examine</text>
    <text x="562" y="244" fill="#5D7390" font-family="Inter,Segoe UI,Arial,sans-serif" font-size="15">Handle evidence</text>
    <text x="568" y="263" fill="#5D7390" font-family="Inter,Segoe UI,Arial,sans-serif" font-size="15">defensibly.</text>

    <circle cx="772" cy="188" r="18" fill="url(#blue)"/>
    <text x="767" y="194" fill="#FFFFFF" font-family="Inter,Segoe UI,Arial,sans-serif" font-size="16" font-weight="800">5</text>
    <text x="735" y="222" fill="#0F223D" font-family="Inter,Segoe UI,Arial,sans-serif" font-size="21" font-weight="800">Analyze</text>
    <text x="729" y="244" fill="#5D7390" font-family="Inter,Segoe UI,Arial,sans-serif" font-size="15">Interpret facts</text>
    <text x="726" y="263" fill="#5D7390" font-family="Inter,Segoe UI,Arial,sans-serif" font-size="15">for the case.</text>

    <circle cx="934" cy="188" r="18" fill="url(#blue)"/>
    <text x="929" y="194" fill="#FFFFFF" font-family="Inter,Segoe UI,Arial,sans-serif" font-size="16" font-weight="800">6</text>
    <text x="900" y="222" fill="#0F223D" font-family="Inter,Segoe UI,Arial,sans-serif" font-size="21" font-weight="800">Report</text>
    <text x="897" y="244" fill="#5D7390" font-family="Inter,Segoe UI,Arial,sans-serif" font-size="15">Explain clearly</text>
    <text x="890" y="263" fill="#5D7390" font-family="Inter,Segoe UI,Arial,sans-serif" font-size="15">in Markdown.</text>

    <circle cx="1086" cy="188" r="18" fill="url(#teal)"/>
    <text x="1081" y="194" fill="#FFFFFF" font-family="Inter,Segoe UI,Arial,sans-serif" font-size="16" font-weight="800">7</text>
    <text x="1046" y="222" fill="#0F223D" font-family="Inter,Segoe UI,Arial,sans-serif" font-size="21" font-weight="800">Review</text>
    <text x="1045" y="244" fill="#5D7390" font-family="Inter,Segoe UI,Arial,sans-serif" font-size="15">Improve the</text>
    <text x="1044" y="263" fill="#5D7390" font-family="Inter,Segoe UI,Arial,sans-serif" font-size="15">next run.</text>
  </g>

  <g stroke="#7EA8E8" stroke-width="4" stroke-linecap="round">
    <path d="M188 206H222"/>
    <path d="M350 206H384"/>
    <path d="M512 206H546"/>
    <path d="M674 206H708"/>
    <path d="M836 206H870"/>
    <path d="M998 206H1032"/>
  </g>
  <g fill="#7EA8E8">
    <path d="M214 198L224 206L214 214V198Z"/>
    <path d="M376 198L386 206L376 214V198Z"/>
    <path d="M538 198L548 206L538 214V198Z"/>
    <path d="M700 198L710 206L700 214V198Z"/>
    <path d="M862 198L872 206L862 214V198Z"/>
    <path d="M1024 198L1034 206L1024 214V198Z"/>
  </g>

  <path d="M1090 284C1090 344 1010 370 874 370H232C132 370 92 346 92 304" stroke="#10B981" stroke-width="5" stroke-linecap="round" stroke-dasharray="8 10"/>
  <path d="M83 309L92 296L101 309" fill="#10B981"/>
  <text x="466" y="396" fill="#087F5B" font-family="Inter,Segoe UI,Arial,sans-serif" font-size="18" font-weight="700">Loop again if new questions remain, scope changes, or the maintainer finds a safer/better next step.</text>
</svg>
