<svg width="1200" height="460" viewBox="0 0 1200 460" fill="none" xmlns="http://www.w3.org/2000/svg">
  <defs>
    <linearGradient id="panel" x1="0" y1="0" x2="1200" y2="420" gradientUnits="userSpaceOnUse">
      <stop stop-color="#F8FBFF"/>
      <stop offset="1" stop-color="#EEF5FF"/>
    </linearGradient>
    <linearGradient id="blue" x1="0" y1="0" x2="1" y2="1">
      <stop stop-color="#2563EB"/>
      <stop offset="1" stop-color="#1D4ED8"/>
    </linearGradient>
    <linearGradient id="teal" x1="0" y1="0" x2="1" y2="1">
      <stop stop-color="#14B8A6"/>
      <stop offset="1" stop-color="#059669"/>
    </linearGradient>
    <filter id="soft" x="0" y="0" width="1200" height="460" filterUnits="userSpaceOnUse" color-interpolation-filters="sRGB">
      <feDropShadow dx="0" dy="10" stdDeviation="18" flood-color="#93B3E5" flood-opacity="0.25"/>
    </filter>
  </defs>

  <rect width="1200" height="460" rx="28" fill="url(#panel)"/>
  <text x="66" y="70" fill="#10223D" font-family="Inter,Segoe UI,Arial,sans-serif" font-size="34" font-weight="800">The forensic investigation loop</text>
  <text x="66" y="104" fill="#48617F" font-family="Inter,Segoe UI,Arial,sans-serif" font-size="19">A case-reviewing examiner cycle: clarify, tool-check, investigate, report, peer review, improve, and go again when needed.</text>

  <g filter="url(#soft)">
    <rect x="64" y="154" width="120" height="104" rx="22" fill="#FFFFFF" stroke="#D4E4FF"/>
    <rect x="200" y="154" width="120" height="104" rx="22" fill="#FFFFFF" stroke="#D4E4FF"/>
    <rect x="336" y="154" width="120" height="104" rx="22" fill="#FFFFFF" stroke="#D4E4FF"/>
    <rect x="472" y="154" width="120" height="104" rx="22" fill="#FFFFFF" stroke="#D4E4FF"/>
    <rect x="608" y="154" width="120" height="104" rx="22" fill="#FFFFFF" stroke="#D4E4FF"/>
    <rect x="744" y="154" width="120" height="104" rx="22" fill="#FFFFFF" stroke="#D4E4FF"/>
    <rect x="880" y="154" width="120" height="104" rx="22" fill="#FFFFFF" stroke="#D4E4FF"/>
    <rect x="1016" y="154" width="120" height="104" rx="22" fill="#FFFFFF" stroke="#D4E4FF"/>
  </g>

  <g>
    <circle cx="124" cy="188" r="18" fill="url(#blue)"/>
    <text x="124" y="194" text-anchor="middle" fill="#FFFFFF" font-family="Inter,Segoe UI,Arial,sans-serif" font-size="16" font-weight="800">1</text>
    <text x="124" y="222" text-anchor="middle" fill="#0F223D" font-family="Inter,Segoe UI,Arial,sans-serif" font-size="18" font-weight="800">Brief</text>
    <text x="124" y="244" text-anchor="middle" fill="#5D7390" font-family="Inter,Segoe UI,Arial,sans-serif" font-size="13">Receive the</text>
    <text x="124" y="262" text-anchor="middle" fill="#5D7390" font-family="Inter,Segoe UI,Arial,sans-serif" font-size="13">case request.</text>

    <circle cx="260" cy="188" r="18" fill="url(#blue)"/>
    <text x="260" y="194" text-anchor="middle" fill="#FFFFFF" font-family="Inter,Segoe UI,Arial,sans-serif" font-size="16" font-weight="800">2</text>
    <text x="260" y="222" text-anchor="middle" fill="#0F223D" font-family="Inter,Segoe UI,Arial,sans-serif" font-size="18" font-weight="800">Clarify</text>
    <text x="260" y="244" text-anchor="middle" fill="#5D7390" font-family="Inter,Segoe UI,Arial,sans-serif" font-size="13">Ask only the</text>
    <text x="260" y="262" text-anchor="middle" fill="#5D7390" font-family="Inter,Segoe UI,Arial,sans-serif" font-size="13">useful questions.</text>

    <circle cx="396" cy="188" r="18" fill="url(#blue)"/>
    <text x="396" y="194" text-anchor="middle" fill="#FFFFFF" font-family="Inter,Segoe UI,Arial,sans-serif" font-size="16" font-weight="800">3</text>
    <text x="396" y="222" text-anchor="middle" fill="#0F223D" font-family="Inter,Segoe UI,Arial,sans-serif" font-size="18" font-weight="800">Toolsmith</text>
    <text x="396" y="244" text-anchor="middle" fill="#5D7390" font-family="Inter,Segoe UI,Arial,sans-serif" font-size="13">Check tools</text>
    <text x="396" y="262" text-anchor="middle" fill="#5D7390" font-family="Inter,Segoe UI,Arial,sans-serif" font-size="13">and coverage.</text>

    <circle cx="532" cy="188" r="18" fill="url(#blue)"/>
    <text x="532" y="194" text-anchor="middle" fill="#FFFFFF" font-family="Inter,Segoe UI,Arial,sans-serif" font-size="16" font-weight="800">4</text>
    <text x="532" y="222" text-anchor="middle" fill="#0F223D" font-family="Inter,Segoe UI,Arial,sans-serif" font-size="18" font-weight="800">Examine</text>
    <text x="532" y="244" text-anchor="middle" fill="#5D7390" font-family="Inter,Segoe UI,Arial,sans-serif" font-size="13">Handle evidence</text>
    <text x="532" y="262" text-anchor="middle" fill="#5D7390" font-family="Inter,Segoe UI,Arial,sans-serif" font-size="13">defensibly.</text>

    <circle cx="668" cy="188" r="18" fill="url(#blue)"/>
    <text x="668" y="194" text-anchor="middle" fill="#FFFFFF" font-family="Inter,Segoe UI,Arial,sans-serif" font-size="16" font-weight="800">5</text>
    <text x="668" y="222" text-anchor="middle" fill="#0F223D" font-family="Inter,Segoe UI,Arial,sans-serif" font-size="18" font-weight="800">Analyze</text>
    <text x="668" y="244" text-anchor="middle" fill="#5D7390" font-family="Inter,Segoe UI,Arial,sans-serif" font-size="13">Interpret facts</text>
    <text x="668" y="262" text-anchor="middle" fill="#5D7390" font-family="Inter,Segoe UI,Arial,sans-serif" font-size="13">for the case.</text>

    <circle cx="804" cy="188" r="18" fill="url(#blue)"/>
    <text x="804" y="194" text-anchor="middle" fill="#FFFFFF" font-family="Inter,Segoe UI,Arial,sans-serif" font-size="16" font-weight="800">6</text>
    <text x="804" y="222" text-anchor="middle" fill="#0F223D" font-family="Inter,Segoe UI,Arial,sans-serif" font-size="18" font-weight="800">Report</text>
    <text x="804" y="244" text-anchor="middle" fill="#5D7390" font-family="Inter,Segoe UI,Arial,sans-serif" font-size="13">Explain clearly</text>
    <text x="804" y="262" text-anchor="middle" fill="#5D7390" font-family="Inter,Segoe UI,Arial,sans-serif" font-size="13">in Markdown.</text>

    <circle cx="940" cy="188" r="18" fill="url(#teal)"/>
    <text x="940" y="194" text-anchor="middle" fill="#FFFFFF" font-family="Inter,Segoe UI,Arial,sans-serif" font-size="16" font-weight="800">7</text>
    <text x="940" y="222" text-anchor="middle" fill="#0F223D" font-family="Inter,Segoe UI,Arial,sans-serif" font-size="17" font-weight="800">Peer review</text>
    <text x="940" y="244" text-anchor="middle" fill="#5D7390" font-family="Inter,Segoe UI,Arial,sans-serif" font-size="13">Challenge claims</text>
    <text x="940" y="262" text-anchor="middle" fill="#5D7390" font-family="Inter,Segoe UI,Arial,sans-serif" font-size="13">and gaps.</text>

    <circle cx="1076" cy="188" r="18" fill="url(#teal)"/>
    <text x="1076" y="194" text-anchor="middle" fill="#FFFFFF" font-family="Inter,Segoe UI,Arial,sans-serif" font-size="16" font-weight="800">8</text>
    <text x="1076" y="222" text-anchor="middle" fill="#0F223D" font-family="Inter,Segoe UI,Arial,sans-serif" font-size="18" font-weight="800">Review</text>
    <text x="1076" y="244" text-anchor="middle" fill="#5D7390" font-family="Inter,Segoe UI,Arial,sans-serif" font-size="13">Improve the</text>
    <text x="1076" y="262" text-anchor="middle" fill="#5D7390" font-family="Inter,Segoe UI,Arial,sans-serif" font-size="13">next run.</text>
  </g>

  <g stroke="#7EA8E8" stroke-width="4" stroke-linecap="round">
    <path d="M184 206H200"/>
    <path d="M320 206H336"/>
    <path d="M456 206H472"/>
    <path d="M592 206H608"/>
    <path d="M728 206H744"/>
    <path d="M864 206H880"/>
    <path d="M1000 206H1016"/>
  </g>
  <g fill="#7EA8E8">
    <path d="M190 198L200 206L190 214V198Z"/>
    <path d="M326 198L336 206L326 214V198Z"/>
    <path d="M462 198L472 206L462 214V198Z"/>
    <path d="M598 198L608 206L598 214V198Z"/>
    <path d="M734 198L744 206L734 214V198Z"/>
    <path d="M870 198L880 206L870 214V198Z"/>
    <path d="M1006 198L1016 206L1006 214V198Z"/>
  </g>

  <path d="M1096 286C1096 362 1008 392 860 392H232C130 392 100 364 100 316" fill="none" stroke="#10B981" stroke-width="5" stroke-linecap="round" stroke-dasharray="8 10"/>
  <path d="M91 321L100 308L109 321" fill="#10B981"/>
  <text x="600" y="418" text-anchor="middle" fill="#087F5B" font-family="Inter,Segoe UI,Arial,sans-serif" font-size="16" font-weight="700">Loop again if peer review, new questions, or</text>
  <text x="600" y="440" text-anchor="middle" fill="#087F5B" font-family="Inter,Segoe UI,Arial,sans-serif" font-size="16" font-weight="700">method review shows a safer or clearer next step.</text>
</svg>
