<svg width="1200" height="640" viewBox="0 0 1200 640" fill="none" xmlns="http://www.w3.org/2000/svg">
  <defs>
    <linearGradient id="bg" x1="0" y1="0" x2="1200" y2="640" gradientUnits="userSpaceOnUse">
      <stop stop-color="#081223"/>
      <stop offset="1" stop-color="#13294B"/>
    </linearGradient>
    <linearGradient id="accent" x1="160" y1="120" x2="420" y2="420" gradientUnits="userSpaceOnUse">
      <stop stop-color="#60A5FA"/>
      <stop offset="1" stop-color="#34D399"/>
    </linearGradient>
    <linearGradient id="card" x1="0" y1="0" x2="1" y2="1">
      <stop stop-color="#10213D"/>
      <stop offset="1" stop-color="#0E1A2F"/>
    </linearGradient>
    <filter id="shadow" x="0" y="0" width="1200" height="640" filterUnits="userSpaceOnUse" color-interpolation-filters="sRGB">
      <feDropShadow dx="0" dy="18" stdDeviation="24" flood-color="#020617" flood-opacity="0.35"/>
    </filter>
  </defs>

  <rect width="1200" height="640" rx="28" fill="url(#bg)"/>
  <circle cx="1050" cy="100" r="170" fill="#1D4ED8" opacity="0.12"/>
  <circle cx="140" cy="530" r="160" fill="#10B981" opacity="0.10"/>
  <circle cx="920" cy="540" r="110" fill="#60A5FA" opacity="0.08"/>

  <g filter="url(#shadow)">
    <rect x="58" y="54" width="1084" height="532" rx="28" fill="#0B1528" fill-opacity="0.42" stroke="#5B7DBA" stroke-opacity="0.18"/>
  </g>

  <g transform="translate(86 60)">
    <rect x="0" y="0" width="94" height="94" rx="22" fill="#0B1C35" stroke="#8CB5FF" stroke-opacity="0.25"/>
    <path d="M47 18L71 28V49C71 66 60 82 47 88C34 82 23 66 23 49V28L47 18Z" fill="url(#accent)" opacity="0.95"/>
    <circle cx="47" cy="48" r="11" fill="#0B1C35"/>
    <path d="M47 41V55" stroke="#E5F2FF" stroke-width="4" stroke-linecap="round"/>
    <circle cx="47" cy="61" r="2.7" fill="#E5F2FF"/>
  </g>

  <text x="210" y="128" fill="#DCEBFF" font-family="Inter,Segoe UI,Arial,sans-serif" font-size="18" font-weight="600" letter-spacing="1.2">SELF-IMPROVING DIGITAL FORENSICS</text>
  <text x="84" y="220" fill="#FFFFFF" font-family="Inter,Segoe UI,Arial,sans-serif" font-size="64" font-weight="800">Forensic Copilot</text>
  <text x="84" y="272" fill="#A9C2E8" font-family="Inter,Segoe UI,Arial,sans-serif" font-size="28" font-weight="500">A forensic examiner agent for investigator-facing,</text>
  <text x="84" y="308" fill="#A9C2E8" font-family="Inter,Segoe UI,Arial,sans-serif" font-size="28" font-weight="500">evidence-safe, loop-driven analysis and reporting.</text>
  <text x="84" y="364" fill="#CFE1FF" font-family="Inter,Segoe UI,Arial,sans-serif" font-size="20" font-weight="400">Built for casework that needs clear scope,</text>
  <text x="84" y="392" fill="#CFE1FF" font-family="Inter,Segoe UI,Arial,sans-serif" font-size="20" font-weight="400">evidence handling you can explain,</text>
  <text x="84" y="420" fill="#CFE1FF" font-family="Inter,Segoe UI,Arial,sans-serif" font-size="20" font-weight="400">and a report another examiner can follow.</text>

  <g transform="translate(90 472)">
    <rect x="0" y="0" width="186" height="52" rx="16" fill="#0D2340" stroke="#2B6EE8" stroke-opacity="0.45"/>
    <text x="24" y="33" fill="#DDEAFE" font-family="Inter,Segoe UI,Arial,sans-serif" font-size="18" font-weight="700">1 user-facing agent</text>
    <rect x="204" y="0" width="196" height="52" rx="16" fill="#0D2340" stroke="#34D399" stroke-opacity="0.45"/>
    <text x="228" y="33" fill="#DDEAFE" font-family="Inter,Segoe UI,Arial,sans-serif" font-size="18" font-weight="700">3 internal helpers</text>
    <rect x="418" y="0" width="194" height="52" rx="16" fill="#0D2340" stroke="#60A5FA" stroke-opacity="0.45"/>
    <text x="442" y="33" fill="#DDEAFE" font-family="Inter,Segoe UI,Arial,sans-serif" font-size="18" font-weight="700">Markdown + formal</text>
  </g>

  <g transform="translate(718 82)">
    <rect x="0" y="0" width="388" height="148" rx="24" fill="url(#card)" stroke="#6EA8FF" stroke-opacity="0.20"/>
    <circle cx="38" cy="38" r="16" fill="#1D4ED8" opacity="0.26"/>
    <path d="M32 38L36 42L45 33" stroke="#DCEBFF" stroke-width="3.2" stroke-linecap="round" stroke-linejoin="round"/>
    <text x="68" y="42" fill="#F8FBFF" font-family="Inter,Segoe UI,Arial,sans-serif" font-size="22" font-weight="700">
      <tspan x="68" dy="0">Clarify high-value</tspan>
      <tspan x="68" dy="28">unknowns</tspan>
    </text>
    <text x="24" y="96" fill="#B5CAEA" font-family="Inter,Segoe UI,Arial,sans-serif" font-size="16">Ask what narrows scope,</text>
    <text x="24" y="118" fill="#B5CAEA" font-family="Inter,Segoe UI,Arial,sans-serif" font-size="16">sharpens interpretation,</text>
    <text x="24" y="140" fill="#B5CAEA" font-family="Inter,Segoe UI,Arial,sans-serif" font-size="16">and improves the report.</text>

    <rect x="0" y="162" width="388" height="148" rx="24" fill="url(#card)" stroke="#6EA8FF" stroke-opacity="0.20"/>
    <circle cx="38" cy="200" r="16" fill="#10B981" opacity="0.24"/>
    <path d="M30 203H46M38 192V208" stroke="#E8FFF7" stroke-width="3.2" stroke-linecap="round"/>
    <text x="68" y="204" fill="#F8FBFF" font-family="Inter,Segoe UI,Arial,sans-serif" font-size="22" font-weight="700">
      <tspan x="68" dy="0">Investigate in</tspan>
      <tspan x="68" dy="28">disciplined loops</tspan>
    </text>
    <text x="24" y="258" fill="#B5CAEA" font-family="Inter,Segoe UI,Arial,sans-serif" font-size="16">Scope → tool check → examine</text>
    <text x="24" y="280" fill="#B5CAEA" font-family="Inter,Segoe UI,Arial,sans-serif" font-size="16">→ analyze → report → peer review.</text>
    <text x="24" y="302" fill="#B5CAEA" font-family="Inter,Segoe UI,Arial,sans-serif" font-size="16">Repeat until blockers are clear.</text>

    <rect x="0" y="324" width="388" height="148" rx="24" fill="url(#card)" stroke="#6EA8FF" stroke-opacity="0.20"/>
    <circle cx="38" cy="362" r="16" fill="#60A5FA" opacity="0.24"/>
    <path d="M31 362C31 358 34 355 38 355C42 355 45 358 45 362C45 366 42 369 38 369C34 369 31 366 31 362Z" stroke="#F0F7FF" stroke-width="2.8"/>
    <path d="M38 349V343M38 381V375M50 362H56M20 362H26" stroke="#F0F7FF" stroke-width="2.8" stroke-linecap="round"/>
    <text x="68" y="366" fill="#F8FBFF" font-family="Inter,Segoe UI,Arial,sans-serif" font-size="22" font-weight="700">
      <tspan x="68" dy="0">Peer review and</tspan>
      <tspan x="68" dy="28">refine</tspan>
    </text>
    <text x="24" y="420" fill="#B5CAEA" font-family="Inter,Segoe UI,Arial,sans-serif" font-size="16">Challenge claims, missing corroboration,</text>
    <text x="24" y="442" fill="#B5CAEA" font-family="Inter,Segoe UI,Arial,sans-serif" font-size="16">and alternate explanations before</text>
    <text x="24" y="464" fill="#B5CAEA" font-family="Inter,Segoe UI,Arial,sans-serif" font-size="16">maintenance changes are accepted.</text>
  </g>
</svg>
